<svg xmlns="http://www.w3.org/2000/svg" width="96" height="96" viewBox="0 0 96 96">
    <path d="m26 64-4 28 16-7 10 9 10-9 16 7-4-28" fill="#6da9cc"/>
    <circle cx="48" cy="43" r="36" fill="#6da9cc"/>
    <circle cx="48" cy="43" r="31" fill="#e5f2f9" stroke="#fff" stroke-width="2"/>
    <g fill="none" stroke="#345c70" stroke-width="2.5" stroke-linecap="round" stroke-linejoin="round">
        <path d="m30 54 13-17 11 3 6 12-8 12m-11-25-7-8 4-6 7 5m-1 13 9 5-11 17m-14-1h14M26 41h8m-9 6h6m33-1h7"/><circle cx="57" cy="27" r="5"/>
    </g>
    <circle cx="48" cy="77" r="3" fill="#e5f2f9"/>
    
</svg>
