<svg xmlns="http://www.w3.org/2000/svg" width="96" height="96" viewBox="0 0 96 96">
    <path d="m26 64-4 28 16-7 10 9 10-9 16 7-4-28" fill="#87ada0"/>
    <circle cx="48" cy="43" r="36" fill="#87ada0"/>
    <circle cx="48" cy="43" r="31" fill="#e8f3ed" stroke="#fff" stroke-width="2"/>
    <g fill="none" stroke="#345c70" stroke-width="2.5" stroke-linecap="round" stroke-linejoin="round">
        <path d="m32 36 5-6 7 5v13H32zM52 35l7-5 5 6v12H52zM39 48l9-6 9 6v15H39z"/><path d="M37 42h1m20 0h1M45 54h1m5 0h1M46 59h4"/>
    </g>
    <circle cx="48" cy="77" r="3" fill="#e8f3ed"/>
</svg>
